<svg width="36" height="36" viewBox="0 0 36 36" fill="none" xmlns="http://www.w3.org/2000/svg">
<mask id="mask0_0_188" style="mask-type:alpha" maskUnits="userSpaceOnUse" x="0" y="0" width="36" height="36">
<rect width="36" height="36" fill="#D9D9D9"/>
</mask>
<g mask="url(#mask0_0_188)">
<path d="M7.59638 32.25C6.95363 32.25 6.40187 32.0196 5.94112 31.5589C5.48037 31.0981 5.25 30.5464 5.25 29.9036V11.9134C5.25 11.2709 5.48037 10.7193 5.94112 10.2585C6.40187 9.79775 6.95363 9.56738 7.59638 9.56738H11.4326C11.4326 7.75188 12.059 6.2035 13.3118 4.92225C14.5642 3.64075 16.0981 3 17.9134 3C19.7599 3 21.3305 3.63562 22.6253 4.90687C23.92 6.17787 24.5674 7.73138 24.5674 9.56738H28.4036C29.0464 9.56738 29.5981 9.79775 30.0589 10.2585C30.5196 10.7193 30.75 11.2709 30.75 11.9134V29.9036C30.75 30.5464 30.5196 31.0981 30.0589 31.5589C29.5981 32.0196 29.0464 32.25 28.4036 32.25H7.59638ZM7.59638 30.3652H28.4036C28.5191 30.3652 28.625 30.3172 28.7213 30.2213C28.8173 30.125 28.8652 30.0191 28.8652 29.9036V11.9134C28.8652 11.7981 28.8173 11.6924 28.7213 11.5961C28.625 11.4999 28.5191 11.4517 28.4036 11.4517H7.59638C7.48088 11.4517 7.375 11.4999 7.27875 11.5961C7.18275 11.6924 7.13475 11.7981 7.13475 11.9134V29.9036C7.13475 30.0191 7.18275 30.125 7.27875 30.2213C7.375 30.3172 7.48088 30.3652 7.59638 30.3652ZM18 19.7017C19.8258 19.7017 21.3927 19.0476 22.701 17.7394C24.0092 16.4311 24.6634 14.8641 24.6634 13.0384H22.779C22.779 14.3526 22.309 15.4776 21.369 16.4134C20.4293 17.3494 19.3059 17.8174 17.9989 17.8174C16.6919 17.8174 15.5705 17.3494 14.6348 16.4134C13.6988 15.4776 13.2308 14.3526 13.2308 13.0384H11.3464C11.3464 14.8641 11.9989 16.4311 13.3039 17.7394C14.6089 19.0476 16.1742 19.7017 18 19.7017ZM13.3174 9.56738H22.6826C22.6826 8.25963 22.2291 7.15225 21.3221 6.24525C20.4151 5.33825 19.3077 4.88475 18 4.88475C16.6923 4.88475 15.5849 5.33825 14.6779 6.24525C13.7709 7.15225 13.3174 8.25963 13.3174 9.56738Z" fill="#5DCF12"/>
</g>
</svg>
