<svg width="41" height="40" viewBox="0 0 41 40" fill="none" xmlns="http://www.w3.org/2000/svg">
<g clip-path="url(#clip0_0_177)">
<path d="M21.3831 0C21.9605 0.071875 22.5386 0.132812 23.1136 0.216406C26.3823 0.690625 29.3628 1.89687 32.012 3.8625C36.1347 6.91719 38.7308 10.9719 39.8112 15.9844C40.2326 17.9581 40.3365 19.9865 40.1191 21.993C39.7558 25.457 38.5995 28.643 36.5706 31.4922C33.6941 35.5297 29.8519 38.1805 25.0495 39.393C23.9636 39.6672 22.8316 39.7539 21.7206 39.9289C21.6073 39.9469 21.4956 39.9758 21.3831 40H19.0394C18.437 39.9219 17.8331 39.8625 17.2323 39.7719C13.723 39.2437 10.579 37.8755 7.80031 35.6672C4.26281 32.8453 1.93338 29.2409 0.812025 24.8539C0.299004 22.8113 0.117264 20.6995 0.273744 18.5992C0.566973 14.3633 2.05682 10.6076 4.74327 7.33203C7.59015 3.86328 11.2144 1.57578 15.598 0.55625C16.6284 0.317187 17.6925 0.228125 18.7378 0.0679687C18.8386 0.0523437 18.937 0.0226562 19.0362 0H21.3831ZM3.49249 20.0102C3.51906 29.282 11.1167 36.9422 20.6589 36.7078C29.5589 36.4898 37.0308 29.1594 36.9222 19.7766C36.8159 10.6719 29.3495 3.16797 19.98 3.28984C10.837 3.40937 3.51359 10.8664 3.49249 20.0102Z" fill="white"/>
<path d="M23.0753 29.1406C23.0753 30.4531 23.0753 31.7023 23.0753 32.9507C23.0753 33.6132 22.9667 33.7203 22.3057 33.7226C22.019 33.7226 21.7323 33.7226 21.4464 33.7226C20.9143 33.7179 20.7721 33.5788 20.7714 33.0546C20.7714 31.9088 20.7714 30.763 20.7714 29.6171V29.1663H18.4924V29.5796C18.4924 30.764 18.4823 31.9484 18.4987 33.1328C18.5042 33.5109 18.3487 33.7023 17.9893 33.7156C17.5604 33.732 17.1299 33.7312 16.701 33.7156C16.3792 33.7038 16.2159 33.5351 16.219 33.189C16.2299 31.9788 16.2245 30.7671 16.2253 29.5578V29.1406H15.769C14.4542 29.1406 13.1401 29.1406 11.8253 29.1406C11.426 29.1406 11.2487 28.9359 11.312 28.546C11.3799 28.1249 11.4682 27.707 11.5464 27.2867C11.6065 26.9663 11.8323 26.8492 12.1229 26.8007C13.1878 26.6234 13.8174 25.957 13.8839 24.8999C13.9229 24.2906 13.9268 23.6781 13.9276 23.0671C13.9323 20.7234 13.9128 18.3796 13.9354 16.0359C13.9503 14.4242 13.1268 13.3796 11.5799 13.1874C11.237 13.1453 11.0456 12.9663 11.0635 12.5882C11.0815 12.2101 11.0635 11.807 11.0682 11.4163C11.0682 11.0031 11.2143 10.8593 11.6299 10.8585C13.0096 10.8585 14.3898 10.8585 15.7706 10.8585H16.2237V8.21557C16.2237 7.73354 16.2315 7.25229 16.2237 6.77104C16.2174 6.48041 16.3581 6.31479 16.6284 6.30229C17.1089 6.27885 17.5909 6.26947 18.0706 6.29213C18.3792 6.30697 18.501 6.51322 18.4987 6.82885C18.4878 8.01322 18.494 9.1976 18.494 10.382V10.8335H20.769V10.421C20.769 9.26244 20.769 8.10385 20.769 6.94604C20.769 6.44057 20.9159 6.29213 21.4151 6.27963C21.7401 6.27104 22.0659 6.27416 22.3917 6.27963C22.9385 6.28666 23.0667 6.40385 23.0714 6.94135C23.0815 8.13666 23.0784 9.33197 23.0807 10.5273C23.0807 10.6171 23.0807 10.7078 23.0807 10.8609C25.3503 10.7046 27.101 11.5781 28.1424 13.6085C29.1581 15.5953 28.9534 17.5624 27.7956 19.4437C28.1339 19.8023 28.4987 20.1343 28.7987 20.5163C30.9964 23.3124 29.8534 27.6257 26.5799 28.8468C26.1034 29.0249 25.5729 29.0929 25.062 29.1304C24.4198 29.1765 23.769 29.1406 23.0753 29.1406ZM18.5034 25.846C20.1354 25.846 21.7354 25.8992 23.3299 25.8288C24.5862 25.7726 25.5174 24.6734 25.4893 23.4593C25.4612 22.1843 24.4815 21.1937 23.1737 21.1663C21.9018 21.1413 20.6292 21.1593 19.3573 21.1585H18.5034V25.846ZM18.5206 14.2968V18.9843C19.7174 18.9843 20.887 18.9843 22.0565 18.9843C23.2682 18.9843 24.2948 17.9796 24.351 16.7453C24.4065 15.5374 23.4393 14.3656 22.2503 14.3132C21.0182 14.2578 19.7815 14.2968 18.5206 14.2968Z" fill="white"/>
</g>
<defs>
<clipPath id="clip0_0_177">
<rect width="40.0063" height="40" fill="white" transform="translate(0.222168)"/>
</clipPath>
</defs>
</svg>
