<svg width="40" height="40" viewBox="0 0 40 40" fill="none" xmlns="http://www.w3.org/2000/svg">
<g clip-path="url(#clip0_0_182)">
<path d="M19.3184 0.0151714C20.2192 -0.0759943 20.9985 0.434099 21.7061 1.06358C24.2383 3.40623 27.5369 4.74653 30.9855 4.83393C33.1018 4.91207 34.4085 6.31645 34.5192 8.43714C34.6494 10.8986 34.9099 13.3254 36.5921 15.318C36.8871 15.7238 37.2345 16.0888 37.6254 16.4033C39.4139 17.6362 40.0456 20.4732 37.8923 22.7415C37.2043 23.4664 36.4185 24.0916 35.9388 25.0271C35.2355 26.4358 35.2268 27.9444 35.1617 29.4465C35.1205 30.3842 35.1443 31.3175 34.7667 32.2031C34.2284 33.4708 33.3883 34.4107 31.9449 34.5908C28.1615 35.0401 24.8405 36.438 21.9601 38.9993C20.3538 40.4276 18.5826 40.3017 17.0024 38.8474C14.5431 36.5596 11.6909 35.3071 8.29173 35.1639C5.64359 35.0553 4.35208 33.5511 4.34122 30.8856C4.34122 27.8033 3.28631 25.1248 1.31756 22.7849C-0.434117 20.6881 -0.455824 19.1491 1.35229 17.061C2.8218 15.3679 3.9071 13.4925 4.2544 11.2654C4.38898 10.4189 4.35425 9.54415 4.44107 8.68676C4.67984 6.29909 5.69568 5.07269 8.06816 4.89904C11.578 4.64291 14.5105 3.34055 16.9308 0.816126C17.5407 0.190991 18.3243 -0.0673118 19.3184 0.0151714ZM19.5008 32.5939C26.0777 32.7675 31.9449 27.189 32.2531 20.7532C32.6221 13.0736 26.5574 7.74037 20.6664 7.32796C12.7371 6.77662 7.06751 12.8587 6.90037 19.7004C6.86369 21.3792 7.16245 23.0484 7.77915 24.6102C8.39586 26.172 9.31809 27.595 10.4918 28.7958C11.6655 29.9967 13.0671 30.9511 14.6145 31.6033C16.1618 32.2555 17.8238 32.5922 19.5029 32.5939H19.5008Z" fill="white"/>
<path d="M31.489 19.9696C31.489 26.362 26.0495 31.8624 19.6852 31.9079C13.2733 31.9535 7.71433 26.4337 7.71216 20.0173C7.71216 13.5055 13.104 8.07898 19.5832 8.07898C26.0625 8.07898 31.489 13.4795 31.489 19.9696ZM19.5355 15.9301C17.8446 15.9301 16.1537 15.9301 14.4606 15.9301C13.8637 15.9301 13.4925 16.1167 13.4947 16.7853C13.4947 18.982 13.4947 21.1764 13.4947 23.3731C13.4947 23.9223 13.7247 24.2652 14.3282 24.2652C17.7122 24.2652 21.0961 24.2913 24.4779 24.2413C25.6349 24.224 25.216 23.2342 25.2919 22.5895C25.3679 21.9448 25.166 21.565 24.4237 21.5867C23.1647 21.6214 21.9036 21.6062 20.6425 21.5867C19.5181 21.5715 18.8387 20.9681 18.8409 20.0282C18.843 19.0883 19.5355 18.4502 20.6208 18.435C21.845 18.4219 23.0714 18.3785 24.2913 18.435C25.2463 18.4871 25.3397 17.9856 25.3245 17.2368C25.3093 16.4879 25.3527 15.8671 24.2978 15.904C22.7067 15.967 21.1222 15.9279 19.5355 15.9301ZM26.5943 17.736V22.2183C27.2455 21.4977 27.7751 20.9312 28.2939 20.3625C28.5392 20.0933 28.4545 19.8524 28.2374 19.6114C27.7469 19.0558 27.2607 18.4957 26.5965 17.736H26.5943ZM12.0512 17.9379C9.93052 19.9935 9.96091 20.7597 12.0512 21.845V17.9379Z" fill="white"/>
</g>
<defs>
<clipPath id="clip0_0_182">
<rect width="39.2577" height="40" fill="white"/>
</clipPath>
</defs>
</svg>
