<svg width="36" height="36" viewBox="0 0 36 36" fill="none" xmlns="http://www.w3.org/2000/svg">
<mask id="mask0_0_185" style="mask-type:alpha" maskUnits="userSpaceOnUse" x="0" y="0" width="36" height="36">
<rect width="36" height="36" fill="#D9D9D9"/>
</mask>
<g mask="url(#mask0_0_185)">
<path d="M9.74029 24.7598H19.125V22.875H9.74029V24.7598ZM24.375 24.7598H26.2598V11.2402H24.375V24.7598ZM9.74029 18.9424H19.125V17.0576H9.74029V18.9424ZM9.74029 13.125H19.125V11.2402H9.74029V13.125ZM5.95391 30.75C5.30916 30.75 4.75691 30.5201 4.29716 30.0604C3.83766 29.6006 3.60791 29.0484 3.60791 28.4036V7.59638C3.60791 6.95163 3.83766 6.39938 4.29716 5.93963C4.75691 5.47988 5.30916 5.25 5.95391 5.25H30.0462C30.6909 5.25 31.2432 5.47988 31.7029 5.93963C32.1624 6.39938 32.3922 6.95163 32.3922 7.59638V28.4036C32.3922 29.0484 32.1624 29.6006 31.7029 30.0604C31.2432 30.5201 30.6909 30.75 30.0462 30.75H5.95391ZM5.95391 28.8652H30.0462C30.1617 28.8652 30.2674 28.8173 30.3634 28.7213C30.4597 28.625 30.5078 28.5191 30.5078 28.4036V7.59638C30.5078 7.48088 30.4597 7.375 30.3634 7.27875C30.2674 7.18275 30.1617 7.13475 30.0462 7.13475H5.95391C5.83841 7.13475 5.73266 7.18275 5.63666 7.27875C5.54041 7.375 5.49229 7.48088 5.49229 7.59638V28.4036C5.49229 28.5191 5.54041 28.625 5.63666 28.7213C5.73266 28.8173 5.83841 28.8652 5.95391 28.8652Z" fill="#5DCF12"/>
</g>
</svg>
