<svg width="101" height="100" viewBox="0 0 101 100" fill="none" xmlns="http://www.w3.org/2000/svg">
<path d="M0.176624 0C33.421 0 66.6643 0 99.9065 0C100.117 0 100.163 0.0466853 100.163 0.260104C100.163 33.5045 100.163 66.7478 100.163 99.99H99.7398H0.696832C0.156616 99.99 0.156616 99.99 0.156616 99.4564V0.426837C0.156616 0.286781 0.156616 0.146725 0.176624 0ZM32.9831 14.3391C33.0251 14.4692 33.0387 14.6068 33.0231 14.7426V30.3055C33.0231 30.739 33.0231 30.7423 33.4666 30.7423H38.1351C38.5787 30.7423 38.5787 30.7423 38.5787 30.3055V8.18994C38.5787 7.73976 38.5787 7.73309 38.1218 7.73309C35.8175 7.73309 33.5133 7.73309 31.209 7.73309C31.0141 7.70954 30.8169 7.75366 30.6506 7.85807C30.4843 7.96248 30.3589 8.12084 30.2953 8.30666C28.03 13.0619 25.7446 17.8182 23.4393 22.5757C23.3892 22.6791 23.3692 22.8525 23.2325 22.8491C23.0958 22.8458 23.0991 22.6824 23.0491 22.5824C22.1599 20.7283 21.2706 18.8731 20.3814 17.0168C18.9408 14.0289 17.5024 11.0389 16.0663 8.04655C16.0268 7.94228 15.9533 7.85434 15.8578 7.79688C15.7622 7.73942 15.6501 7.71578 15.5394 7.72976C13.1418 7.72976 10.7442 7.72976 8.34656 7.72976C7.93639 7.72976 7.91305 7.7531 7.91305 8.15993V30.3455C7.91305 30.7356 7.92973 30.7523 8.33655 30.7523H13.0051C13.4719 30.7523 13.4753 30.7523 13.4753 30.2854C13.4753 25.1234 13.4753 19.9613 13.4753 14.7993C13.4534 14.6724 13.4672 14.5419 13.5153 14.4224C13.6453 14.4491 13.662 14.5525 13.702 14.6325C14.5246 16.2154 15.3449 17.7993 16.163 19.3844C17.6236 22.2189 19.082 25.0534 20.5381 27.8878C20.5711 27.9751 20.6315 28.0493 20.7103 28.0992C20.7891 28.1491 20.882 28.1721 20.9749 28.1646C22.4889 28.1646 24.0028 28.1646 25.5168 28.1646C25.6097 28.1721 25.7026 28.1491 25.7814 28.0992C25.8602 28.0493 25.9206 27.9751 25.9536 27.8878C26.4471 26.9174 26.954 25.9504 27.4509 24.98L32.7863 14.5992C32.8172 14.4952 32.8879 14.4077 32.9831 14.3557V14.3391ZM89.6724 76.8407C90.4894 76.8407 91.3097 76.8407 92.1267 76.8407C92.3802 76.8407 92.4602 76.764 92.4269 76.5073C92.3096 75.344 91.9471 74.2188 91.3631 73.2059C90.236 71.2818 88.5086 70.1514 86.4245 69.5178C84.5018 68.982 82.5147 68.7127 80.5188 68.7175C78.2522 68.6192 75.9846 68.886 73.8027 69.5078C70.9116 70.3948 68.8307 72.1755 67.7136 75.0167C67.2328 76.2841 66.9505 77.6181 66.8766 78.9716C66.6895 81.0161 66.8302 83.0773 67.2935 85.0774C68.1238 88.3387 70.0779 90.5996 73.2759 91.7467C75.178 92.3832 77.1691 92.7141 79.1749 92.7271C80.5111 92.7641 81.8482 92.7073 83.1765 92.557C84.6646 92.4346 86.1259 92.0895 87.5116 91.5333C90.4016 90.2839 92.0456 88.0886 92.4435 84.9473C92.4902 84.5872 92.4769 84.5838 92.1101 84.5838C90.5028 84.5838 88.8954 84.5838 87.2881 84.5838C87.232 84.5733 87.1742 84.5749 87.1187 84.5885C87.0633 84.6022 87.0113 84.6275 86.9665 84.6629C86.9216 84.6983 86.8848 84.7429 86.8586 84.7937C86.8325 84.8445 86.8174 84.9002 86.8146 84.9573C86.6961 85.548 86.4339 86.1003 86.0512 86.5656C85.6685 87.0309 85.1771 87.3948 84.6204 87.625C83.7565 87.9759 82.8404 88.181 81.9093 88.232C80.242 88.4231 78.5553 88.359 76.9073 88.0419C75.6768 87.7784 74.573 87.3083 73.706 86.3379C72.7423 85.2408 72.4589 83.9102 72.4088 82.5197C72.3688 81.3359 72.3855 80.1487 72.4088 78.9649C72.4111 78.1068 72.5763 77.257 72.8957 76.4606C73.5626 74.9 74.7731 74.0196 76.3638 73.5761C77.9544 73.1326 79.6351 73.1192 81.2891 73.2026C82.1923 73.2292 83.0885 73.3692 83.9568 73.6194C85.4541 74.0796 86.4778 75.0033 86.8246 76.5773C86.8304 76.6209 86.8447 76.663 86.8668 76.7011C86.8888 76.7392 86.9183 76.7725 86.9533 76.7992C86.9883 76.8258 87.0283 76.8453 87.0709 76.8564C87.1135 76.8676 87.1578 76.8702 87.2014 76.8641C88.0118 76.8507 88.8388 76.8574 89.6658 76.8574L89.6724 76.8407ZM79.6684 7.71642H67.3468C66.8133 7.71642 66.8099 7.71642 66.8099 8.23996V11.728C66.8099 12.2516 66.8099 12.2516 67.3502 12.2516H76.4038C76.8339 12.2516 76.8573 12.2716 76.854 12.6917C76.8373 14.2057 76.854 15.7196 76.8306 17.2336C76.8006 21.6153 76.8306 25.9971 76.8139 30.3788C76.8139 30.7123 76.8306 30.7423 77.1908 30.7423H81.986C82.3662 30.7423 82.3862 30.7223 82.3862 30.3455C82.3862 28.4069 82.3962 26.4695 82.4162 24.5331C82.4429 20.6216 82.4162 16.71 82.4162 12.7985C82.4162 12.2516 82.4162 12.2516 82.9797 12.2516H92.01C92.4569 12.2516 92.4602 12.2516 92.4602 11.7914V8.23663C92.4602 7.73309 92.4602 7.73309 91.9667 7.73309L79.6684 7.71642Z" fill="white"/>
</svg>
