<svg width="33" height="40" viewBox="0 0 33 40" fill="none" xmlns="http://www.w3.org/2000/svg">
<path d="M0.0186011 19.999C0.0186011 16.4464 0.0186011 12.8927 0.0186011 9.33805C0.0186011 9.15369 -0.0650501 8.9037 0.10122 8.79954C0.307766 8.67142 0.479199 8.89537 0.646501 8.99849C4.77742 11.549 8.90835 14.1017 13.0393 16.6564C13.1931 16.7512 13.3584 16.9575 13.5381 16.8575C13.7446 16.7418 13.6413 16.4783 13.6413 16.2814C13.6469 11.1505 13.6469 6.01913 13.6413 0.88745C13.6413 0.73225 13.6413 0.574967 13.6413 0.419766C13.6599 -0.0614588 13.7312 -0.10104 14.1577 0.162488L18.6429 2.93109L31.7998 11.0411C32.3606 11.3869 32.3627 11.4119 31.806 11.7567L19.1479 19.5823C18.4952 19.9854 18.4952 20.0229 19.1706 20.4406L31.7823 28.2423C32.2987 28.561 32.2987 28.636 31.7823 28.9579C25.9178 32.5806 20.0546 36.2016 14.1928 39.8208C14.0648 39.9 13.9346 40.0573 13.7797 39.9781C13.5732 39.874 13.6537 39.6375 13.6537 39.4573C13.6482 34.2923 13.6465 29.1263 13.6486 23.9592C13.6486 23.804 13.6424 23.6467 13.6486 23.4915C13.6651 23.1071 13.5453 23.0269 13.2055 23.2415C11.5697 24.2633 9.92352 25.2695 8.28251 26.283C5.68967 27.8871 3.09717 29.4908 0.505017 31.0942C0.076434 31.3588 0.0216993 31.3223 0.0206665 30.7619C0.0186011 27.1739 0.0179126 23.5863 0.0186011 19.999ZM18.522 11.3713C18.522 12.1171 18.5293 12.8618 18.522 13.6066C18.5169 14.0055 18.6584 14.0607 18.9795 13.8607C20.1768 13.1136 21.3772 12.3709 22.5807 11.6327C22.8616 11.4609 22.8574 11.3369 22.5807 11.1671C21.3724 10.4373 20.1675 9.70088 18.9661 8.95786C18.615 8.74121 18.5169 8.87974 18.521 9.24014C18.5282 9.94844 18.522 10.6588 18.522 11.3692V11.3713ZM18.6047 28.5683C18.6047 29.2974 18.6047 30.0214 18.6047 30.7474C18.6047 31.0817 18.6862 31.213 19.0177 31.0088C20.2019 30.2776 21.3885 29.5509 22.5776 28.8287C22.8481 28.6641 22.8791 28.5423 22.5879 28.3652C21.3992 27.6413 20.2126 26.9153 19.0343 26.1778C18.6656 25.9466 18.6005 26.0945 18.6057 26.4465C18.6098 27.1486 18.6036 27.8579 18.6047 28.5662V28.5683ZM4.90238 19.9698C4.90238 20.6625 4.90238 21.3551 4.90238 22.0468C4.90238 22.3843 4.9943 22.5082 5.32167 22.303C6.44459 21.6003 7.57061 20.9038 8.69973 20.2135C8.95792 20.0552 8.96618 19.9448 8.69973 19.7833C7.5713 19.0938 6.44597 18.397 5.32374 17.6928C5.00152 17.4918 4.89825 17.6001 4.90135 17.9449C4.90651 18.6199 4.90238 19.2948 4.90238 19.9698Z" fill="white"/>
</svg>
