<svg width="36" height="36" viewBox="0 0 36 36" fill="none" xmlns="http://www.w3.org/2000/svg">
<mask id="mask0_0_197" style="mask-type:alpha" maskUnits="userSpaceOnUse" x="0" y="0" width="36" height="36">
<rect width="36" height="36" fill="#D9D9D9"/>
</mask>
<g mask="url(#mask0_0_197)">
<path d="M6.75 30.75V26.4589L27.3435 5.8635C27.5595 5.6475 27.7874 5.49125 28.0271 5.39475C28.2669 5.29825 28.5126 5.25 28.7644 5.25C29.0111 5.25 29.2555 5.29825 29.4975 5.39475C29.7395 5.49125 29.9611 5.6475 30.1624 5.8635L31.6365 7.33762C31.8525 7.52862 32.0088 7.7435 32.1053 7.98225C32.2018 8.221 32.25 8.47213 32.25 8.73563C32.25 8.97713 32.2018 9.22037 32.1053 9.46537C32.0088 9.71012 31.8525 9.9405 31.6365 10.1565L11.0411 30.75H6.75ZM8.63475 28.8652H10.2664L26.5211 12.6184L25.7126 11.7874L24.8816 10.9789L8.63475 27.2336V28.8652ZM25.7126 11.7874L24.8816 10.9789L26.5211 12.6184L25.7126 11.7874ZM21.2021 30.75C23.0034 30.75 24.6411 30.3253 26.1154 29.4757C27.5896 28.6265 28.3267 27.4263 28.3267 25.875C28.3267 24.9468 27.9977 24.1064 27.3397 23.3539C26.6817 22.6014 25.688 21.9972 24.3585 21.5415L22.9028 23.0066C23.9982 23.3156 24.8621 23.7267 25.4944 24.24C26.1264 24.753 26.4424 25.298 26.4424 25.875C26.4424 26.6963 25.9311 27.3999 24.9086 27.9859C23.8861 28.5721 22.6506 28.8652 21.2021 28.8652C20.9404 28.8652 20.7179 28.9544 20.5346 29.1326C20.3514 29.3109 20.2598 29.5359 20.2598 29.8076C20.2598 30.0691 20.3514 30.2916 20.5346 30.4751C20.7179 30.6584 20.9404 30.75 21.2021 30.75ZM8.68162 20.3779L10.1415 18.9037C9.13575 18.598 8.38312 18.2752 7.88363 17.9355C7.38437 17.5957 7.13475 17.2422 7.13475 16.875C7.13475 16.4443 7.40725 16.0307 7.95225 15.6345C8.4975 15.2385 9.575 14.7184 11.1848 14.0741C13.2053 13.2664 14.5658 12.5159 15.2663 11.8226C15.967 11.1294 16.3174 10.3186 16.3174 9.39037C16.3174 8.14937 15.8173 7.14913 14.817 6.38963C13.8165 5.62988 12.5025 5.25 10.875 5.25C9.877 5.25 8.95713 5.42625 8.11538 5.77875C7.27363 6.1315 6.64963 6.571 6.24338 7.09725C6.07913 7.29775 6.0055 7.52387 6.0225 7.77562C6.0395 8.02712 6.15863 8.23563 6.37988 8.40113C6.58438 8.56188 6.81412 8.627 7.06912 8.5965C7.32437 8.56625 7.53725 8.46588 7.70775 8.29538C8.09675 7.90613 8.55087 7.61538 9.07012 7.42313C9.58937 7.23088 10.191 7.13475 10.875 7.13475C12.041 7.13475 12.9255 7.35637 13.5285 7.79962C14.1313 8.24287 14.4326 8.77312 14.4326 9.39037C14.4326 9.90762 14.1774 10.3632 13.6669 10.7572C13.1564 11.1512 12.0774 11.6819 10.4299 12.3491C8.32788 13.1849 6.93913 13.9332 6.26363 14.5942C5.58787 15.2552 5.25 16.0155 5.25 16.875C5.25 17.5787 5.52612 18.2424 6.07837 18.8659C6.63062 19.4894 7.49837 19.9934 8.68162 20.3779Z" fill="#5DCF12"/>
</g>
</svg>
