<svg width="40" height="40" viewBox="0 0 40 40" fill="none" xmlns="http://www.w3.org/2000/svg">
<mask id="mask0_0_200" style="mask-type:alpha" maskUnits="userSpaceOnUse" x="0" y="0" width="40" height="40">
<rect width="40" height="40" fill="#D9D9D9"/>
</mask>
<g mask="url(#mask0_0_200)">
<path d="M15.1946 23.9104V22.1263H24.8054V23.9104H15.1946ZM13.5108 18.7071V16.9229H26.4892V18.7071H13.5108ZM11.7737 37.5C11.0574 37.5 10.4437 37.2446 9.93291 36.7337C9.42207 36.2229 9.16666 35.6093 9.16666 34.8929V5.10708C9.16666 4.39069 9.42207 3.77708 9.93291 3.26625C10.4437 2.75542 11.0574 2.5 11.7737 2.5H28.2262C28.9426 2.5 29.5562 2.75542 30.0671 3.26625C30.5779 3.77708 30.8333 4.39069 30.8333 5.10708V34.8929C30.8333 35.6093 30.5779 36.2229 30.0671 36.7337C29.5562 37.2446 28.9426 37.5 28.2262 37.5H11.7737ZM11.2608 33.5254V34.8929C11.2608 35.0213 11.3142 35.1389 11.4208 35.2458C11.5278 35.3525 11.6454 35.4058 11.7737 35.4058H28.2262C28.3546 35.4058 28.4722 35.3525 28.5792 35.2458C28.6858 35.1389 28.7392 35.0213 28.7392 34.8929V33.5254H11.2608ZM11.2608 31.4317H28.7392V8.56833H11.2608V31.4317ZM11.2608 6.47458H28.7392V5.10708C28.7392 4.97875 28.6858 4.86111 28.5792 4.75417C28.4722 4.6475 28.3546 4.59417 28.2262 4.59417H11.7737C11.6454 4.59417 11.5278 4.6475 11.4208 4.75417C11.3142 4.86111 11.2608 4.97875 11.2608 5.10708V6.47458Z" fill="#5DCF12"/>
</g>
</svg>
