<svg width="100" height="100" viewBox="0 0 100 100" fill="none" xmlns="http://www.w3.org/2000/svg">
<path d="M47.5 0H52.6234C53.25 0.19 53.9034 0.136667 54.54 0.193333C60.6782 0.727734 66.6605 2.415 72.1734 5.16667C80.3656 9.20674 87.2857 15.4268 92.1734 23.1433C96.0408 29.1559 98.5439 35.9428 99.5067 43.0267C99.6934 44.3867 99.8167 45.7533 99.97 47.1167V52.8667C99.7967 54.3933 99.6734 55.93 99.4434 57.45C98.0314 66.7544 94.0268 75.4728 87.8885 82.6062C81.7502 89.7397 73.7265 94.9996 64.7367 97.7833C53.442 101.268 41.278 100.638 30.4034 96.0067C21.79 92.27 14.6667 86.61 9.26337 78.9067C1.2967 67.5467 -1.57663 54.9433 0.820036 41.2967C3.17337 27.8967 10.0634 17.2133 21.09 9.24667C27.6271 4.53211 35.2323 1.51408 43.2234 0.463333C44.6434 0.266667 46.0734 0.153333 47.5 0ZM58.5 21.6133C58.5 20.9067 58.5 20.1967 58.5 19.49C58.5 19.0633 58.5934 18.54 58.1034 18.3267C57.6134 18.1133 57.2167 18.5167 56.8634 18.84C56.7267 18.97 56.5967 19.1033 56.4634 19.2367C55.3334 20.3333 54.22 21.4333 53.1334 22.5533C52.9678 22.7414 52.7619 22.8898 52.531 22.9873C52.3002 23.0848 52.0503 23.129 51.8 23.1167C50.492 23.0483 49.1814 23.0483 47.8734 23.1167C47.3134 23.17 47.0734 22.9567 47.0867 22.3767C47.1134 21.3567 47.11 20.3367 47.0867 19.3167C47.0867 18.7533 47.2767 18.0433 46.6067 17.7567C45.9367 17.47 45.5467 18.09 45.1467 18.4833C42.48 21.0433 39.8534 23.6733 37.3434 26.4033C35.8972 27.9102 34.6422 29.5895 33.6067 31.4033C31.7534 34.8267 31.42 38.48 31.94 42.26C32.2026 44.4869 33.0554 46.6032 34.41 48.39C36.0434 50.4833 38.23 51.76 40.6934 52.62C43.2767 53.5233 45.98 53.9533 48.6267 54.62C50.5467 55.0933 52.4867 55.5 54.2467 56.46C55.42 57.0967 56.2467 58.0167 56.4634 59.3833C56.85 61.8833 55.85 63.7167 53.5 64.68C51.1 65.6633 48.5867 65.77 46.0667 65.3467C43.1258 64.8095 40.3663 63.5444 38.04 61.6667C37.11 60.9367 36.46 61.03 35.76 61.9533C34.0823 64.1555 32.4089 66.3622 30.74 68.5733C29.9634 69.5967 30.0734 70.24 31.0734 70.9933C32.7751 72.2325 34.6071 73.282 36.5367 74.1233C43.63 77.24 50.87 77.7667 58.1767 75.05C62.5667 73.4233 65.8834 70.5433 67.66 66.11C68.9934 62.7767 69.0834 59.3233 68.3667 55.8533C67.7622 52.9183 66.0565 50.3263 63.6 48.61C61.5827 47.1918 59.3234 46.1537 56.9334 45.5467C54.5234 44.88 52.0367 44.5467 49.6234 43.8967C48.3237 43.5946 47.0688 43.1251 45.89 42.5C44.8634 41.9067 44.08 41.1133 43.8267 39.89C43.3134 37.41 44.5434 35.4 47.09 34.7433C50.8234 33.78 54.18 34.5567 57.14 37.0433C58.11 37.86 58.7334 37.78 59.4967 36.7833C61.1789 34.5833 62.8589 32.3811 64.5367 30.1767C65.2567 29.23 65.1434 28.57 64.1767 27.8433C62.598 26.648 60.8921 25.6307 59.09 24.81C58.8928 24.7455 58.7237 24.6154 58.6109 24.4413C58.498 24.2672 58.4483 24.0597 58.47 23.8533C58.5034 23.1133 58.4867 22.3633 58.4867 21.6133H58.5ZM60.5 78.1367C60.4373 78.1364 60.3746 78.1431 60.3134 78.1567C58.2171 78.8388 56.0674 79.3439 53.8867 79.6667C53.3534 79.7533 53.1667 80.1267 53.38 80.65C53.84 81.7633 54.28 82.89 54.7667 83.9833C55.1534 84.8567 55.62 84.91 56.2567 84.1933C57.3989 82.9067 58.5356 81.62 59.6667 80.3333C60.091 79.8762 60.4905 79.3967 60.8634 78.8967C61.1834 78.4467 61 78.1367 60.5034 78.1367H60.5ZM38.8867 79.73C39.0134 81.0633 39.14 82.5133 39.29 83.9633C39.3667 84.6867 39.7367 84.8533 40.35 84.4433C40.8167 84.1333 41.2534 83.7767 41.7134 83.4433C42.8567 82.6433 44.01 81.86 45.1534 81.06C45.41 80.8767 45.65 80.6533 45.5734 80.2867C45.5402 80.1645 45.4691 80.0559 45.3702 79.9768C45.2713 79.8978 45.1499 79.8521 45.0234 79.8467C43.1764 79.5302 41.3516 79.096 39.56 78.5467C39.17 78.42 38.9134 78.61 38.8934 79.04C38.8834 79.24 38.89 79.4267 38.89 79.73H38.8867Z" fill="white"/>
</svg>
