<svg width="40" height="40" viewBox="0 0 40 40" fill="none" xmlns="http://www.w3.org/2000/svg">
<g clip-path="url(#clip0_0_174)">
<path d="M35.2473 19.5245L39.5291 16.3753C39.8203 16.7342 39.8052 17.087 39.8445 17.3938C40.2947 20.92 39.8075 24.5043 38.4338 27.7742C37.2041 30.7594 35.2941 33.2275 32.8982 35.2907C30.328 37.5305 27.2138 39.0281 23.8804 39.6273C19.0524 40.5047 14.4356 39.8405 10.1236 37.3861C8.02393 36.1805 6.15372 34.6022 4.60155 32.7259C2.08928 29.7755 0.52694 26.113 0.125083 22.232C-0.252501 18.9758 0.182844 15.6754 1.39092 12.6354C2.5434 9.71174 4.36446 7.10932 6.70324 5.04376C9.766 2.33782 13.3236 0.667321 17.3867 0.168778C20.8372 -0.2546 24.1942 0.102817 27.4335 1.41283C29.1326 2.1138 30.7376 3.03074 32.2102 4.14178C32.32 4.20861 32.4012 4.31476 32.438 4.43937C32.1664 4.88116 29.6936 6.78176 28.6058 7.3754C27.7382 6.87533 26.8662 6.3277 25.9051 5.9442C22.767 4.64789 19.3012 4.41549 16.0228 5.28153C14.0042 5.83074 12.1163 6.79098 10.4736 8.10404C8.35952 9.77149 6.7407 12.0014 5.79648 14.5468C4.35109 18.3265 4.41144 22.1016 5.94735 25.8476C6.74817 27.8621 7.98714 29.6661 9.57137 31.1244C11.9416 33.272 14.6891 34.6526 17.8861 35.0744C21.0107 35.4809 24.0116 35.0852 26.8104 33.6202C31.4166 31.2088 34.1912 27.403 35.0632 22.1844C35.2081 21.3223 35.0994 20.4572 35.2473 19.5245Z" fill="white"/>
<path d="M20.0046 25.257C18.7508 24.4731 17.5559 23.723 16.3625 22.9805C15.2083 22.2565 14.0661 21.5156 12.9029 20.813C12.4669 20.5492 12.2662 20.2316 12.2768 19.704C12.3039 18.2774 12.2768 16.8492 12.2873 15.4226C12.2873 15.2002 12.2526 14.9624 12.4804 14.7017C13.7885 15.3153 14.9427 16.2034 16.1814 16.9443C17.4201 17.6852 18.6573 18.4937 19.9804 19.3266C25.2415 15.4932 30.4572 11.5862 35.7575 7.71899C36.7985 8.94618 37.5272 10.2991 38.2635 11.7702C32.1802 16.2939 26.1014 20.7425 20.0046 25.257Z" fill="white"/>
</g>
<defs>
<clipPath id="clip0_0_174">
<rect width="40" height="40" fill="white"/>
</clipPath>
</defs>
</svg>
