<svg width="101" height="100" viewBox="0 0 101 100" fill="none" xmlns="http://www.w3.org/2000/svg">
<path d="M0.16333 64.8767V35.0233C0.199458 34.866 0.227274 34.7069 0.246663 34.5467C0.279997 33.9467 0.319997 33.3467 0.326663 32.7433C0.356663 30.5667 0.469997 28.41 0.62333 26.22C0.766989 23.9325 1.03628 21.6546 1.43 19.3967C1.93333 16.5833 2.7 13.8533 4.05333 11.3133C5.62404 8.33103 8.00706 5.8544 10.9267 4.17C13.2579 2.86383 15.7849 1.94306 18.41 1.44333C22.1633 0.666667 26 0.376667 29.83 0.193333C31.4733 0.113333 33.1133 0.0566667 34.7567 0.0666667C34.9359 0.0778518 35.1157 0.0552369 35.2867 0L65.04 0C65.2764 0.0647814 65.5222 0.0884592 65.7667 0.07C67.75 0.07 69.73 0.163333 71.71 0.26C74.2433 0.383333 76.7667 0.593333 79.2767 0.96C81.9559 1.31185 84.5807 1.99716 87.09 3C90.0289 4.1906 92.607 6.12641 94.57 8.61667C96.2206 10.7836 97.4322 13.252 98.1367 15.8833C98.866 18.5498 99.347 21.2782 99.5733 24.0333C99.9067 27.45 100.057 30.8733 100.08 34.3033C100.08 35.7678 100.086 37.2311 100.097 38.6933C100.089 38.9363 100.111 39.1793 100.163 39.4167V60.49C100.106 60.7605 100.084 61.0372 100.097 61.3133C100.097 65.2133 100.077 69.11 99.8033 73.0033C99.6467 75.24 99.4433 77.4733 99.0867 79.6867C98.734 82.1175 98.0963 84.4983 97.1867 86.78C96.2999 89.016 94.977 91.0532 93.295 92.7729C91.6131 94.4926 89.6058 95.8604 87.39 96.7967C85.0196 97.7907 82.5333 98.4817 79.99 98.8533C76.23 99.4146 72.4376 99.7319 68.6367 99.8033C66.67 99.8633 64.7067 99.9467 62.74 99.9233C62.3 99.9233 61.8633 99.9233 61.4233 99.9233C61.2285 99.9116 61.0331 99.9353 60.8467 99.9933H39.5767C39.3417 99.9268 39.0967 99.903 38.8533 99.9233C36.0756 99.91 33.2978 99.8478 30.52 99.7367C28.15 99.6467 25.7833 99.5 23.4267 99.2433C21.2761 99.029 19.1431 98.6648 17.0433 98.1533C14.8731 97.6396 12.7883 96.8156 10.8533 95.7067C7.19219 93.5487 4.3975 90.1824 2.95 86.1867C2.12672 83.943 1.54673 81.6175 1.22 79.25C0.706436 75.5641 0.413692 71.8508 0.34333 68.13C0.316663 67.2067 0.28333 66.28 0.24333 65.3567C0.22643 65.1952 0.199713 65.0349 0.16333 64.8767ZM43.9833 44.8133V58.3333C43.9933 58.5121 43.9933 58.6912 43.9833 58.87C43.9567 59.1433 43.8767 59.2033 43.5967 59.1467C43.5175 59.1295 43.4396 59.1073 43.3633 59.08C42.1158 58.6982 40.9269 58.1463 39.83 57.44C37.27 55.7735 35.1289 53.5389 33.5733 50.91C31.5733 47.6333 30.3167 44.05 29.5267 40.3033C28.9218 37.2564 28.5684 34.1649 28.47 31.06C28.4433 30.5 28.3967 30.4567 27.84 30.4467H17.9267C17.7968 30.4383 17.6665 30.4383 17.5367 30.4467C17.25 30.4767 17.1833 30.55 17.1567 30.8467C17.1483 30.9765 17.1483 31.1068 17.1567 31.2367C17.2067 32.2933 17.2533 33.3467 17.33 34.4C17.4963 36.7673 17.7967 39.1234 18.23 41.4567C19.1433 46.3333 20.6333 51 23.0533 55.3333C24.8473 58.6032 27.1968 61.5359 29.9967 64C33.6648 67.1736 38.0224 69.4483 42.7233 70.6433C46.3498 71.574 50.087 72.0024 53.83 71.9167C54.6467 71.9167 54.6667 71.8933 54.6667 71.0567V57.89C54.6667 57.0833 54.6933 57.06 55.4967 57.18C60.4133 57.9133 64.41 60.2833 67.61 64.04C69.4229 66.1968 70.8229 68.6692 71.74 71.3333C71.9333 71.88 71.9633 71.8967 72.5467 71.9033H82.79C82.92 71.9033 83.05 71.9033 83.18 71.9033C83.58 71.8833 83.6333 71.8133 83.5333 71.42C83.4867 71.2333 83.4267 71.0467 83.37 70.86C82.7753 68.9328 82.0007 67.0657 81.0567 65.2833C77.9566 59.3461 73.1065 54.5053 67.1633 51.4167C67.0233 51.3433 66.83 51.31 66.7967 51.13C66.7633 50.95 67.01 50.8667 67.1533 50.7967C68.629 49.8732 70.017 48.8166 71.3 47.64C74.6739 44.6074 77.3811 40.907 79.25 36.7733C80.0729 34.9227 80.6877 32.9864 81.0833 31C81.1867 30.4967 81.1433 30.44 80.6633 30.44H71.0533C70.5633 30.44 70.5233 30.4767 70.3867 30.9567C69.7291 33.0542 68.8156 35.0627 67.6667 36.9367C65.9302 39.872 63.5992 42.4119 60.8233 44.3933C59.3024 45.4896 57.5774 46.2705 55.75 46.69C55.5112 46.7421 55.2697 46.7811 55.0267 46.8067C54.9858 46.8166 54.9431 46.8168 54.9021 46.8073C54.8611 46.7979 54.8229 46.7789 54.7905 46.752C54.7581 46.7252 54.7325 46.6911 54.7156 46.6525C54.6987 46.614 54.6911 46.572 54.6933 46.53C54.6933 46.3367 54.6733 46.14 54.6733 45.9467V31.4233C54.6733 31.26 54.6733 31.09 54.6733 30.9333C54.6533 30.53 54.59 30.4667 54.1767 30.45C54.0767 30.45 53.98 30.45 53.8833 30.45H44.8C43.9833 30.45 43.9833 30.45 43.9833 31.2567V44.8133Z" fill="white"/>
</svg>
