<svg width="36" height="36" viewBox="0 0 36 36" fill="none" xmlns="http://www.w3.org/2000/svg">
<mask id="mask0_0_194" style="mask-type:alpha" maskUnits="userSpaceOnUse" x="0" y="0" width="36" height="36">
<rect width="36" height="36" fill="#D9D9D9"/>
</mask>
<g mask="url(#mask0_0_194)">
<path d="M27.2405 29.5384V24.7597H22.4615V22.875H27.2405V18.1057H29.1252V22.875H33.8941V24.7597H29.1252V29.5384H27.2405ZM4.45208 30.75C3.80733 30.75 3.25508 30.5201 2.79533 30.0604C2.33583 29.6006 2.10608 29.0484 2.10608 28.4036V7.31737C2.10608 6.67762 2.33583 6.12662 2.79533 5.66437C3.25508 5.20237 3.80733 4.97137 4.45208 4.97137H25.5383C26.1781 4.97137 26.7291 5.20237 27.1913 5.66437C27.6536 6.12662 27.8847 6.67762 27.8847 7.31737V15.1826H26V11.2597H3.99045V28.4036C3.99045 28.5384 4.0337 28.649 4.1202 28.7355C4.2067 28.822 4.31733 28.8652 4.45208 28.8652H24.3173V30.75H4.45208ZM3.99045 9.375H26V7.31737C26 7.18912 25.9551 7.08012 25.8653 6.99037C25.7756 6.90062 25.6666 6.85575 25.5383 6.85575H4.45208C4.31733 6.85575 4.2067 6.90062 4.1202 6.99037C4.0337 7.08012 3.99045 7.18912 3.99045 7.31737V9.375Z" fill="#5DCF12"/>
</g>
</svg>
