<svg width="36" height="36" viewBox="0 0 36 36" fill="none" xmlns="http://www.w3.org/2000/svg">
<mask id="mask0_0_191" style="mask-type:alpha" maskUnits="userSpaceOnUse" x="0" y="0" width="36" height="36">
<rect width="36" height="36" fill="#D9D9D9"/>
</mask>
<g mask="url(#mask0_0_191)">
<path d="M21.2576 31.2885C21.7891 31.2885 22.2396 31.1011 22.6091 30.7264C22.9786 30.3516 23.1634 29.8986 23.1634 29.3674C23.1634 28.8359 22.9796 28.3854 22.6121 28.0159C22.2449 27.6464 21.7893 27.4616 21.2453 27.4616C20.7223 27.4616 20.2734 27.6453 19.8986 28.0125C19.5239 28.38 19.3365 28.8358 19.3365 29.3798C19.3365 29.9028 19.5239 30.3516 19.8986 30.7264C20.2734 31.1011 20.7264 31.2885 21.2576 31.2885ZM30.1905 17.25C30.7218 17.25 31.1723 17.0626 31.542 16.6879C31.9115 16.3134 32.0963 15.8604 32.0963 15.3289C32.0963 14.7974 31.9125 14.3469 31.545 13.9774C31.1775 13.6079 30.7218 13.4231 30.1778 13.4231C29.6548 13.4231 29.2059 13.6069 28.8311 13.9744C28.4566 14.3419 28.2694 14.7975 28.2694 15.3412C28.2694 15.8645 28.4566 16.3134 28.8311 16.6879C29.2059 17.0626 29.659 17.25 30.1905 17.25ZM9.375 15.7598H17.0771V13.875H9.375V15.7598ZM9.375 22.125H17.0771V20.2402H9.375V22.125ZM5.95388 29.25C5.30913 29.25 4.75688 29.0201 4.29713 28.5604C3.83763 28.1006 3.60788 27.5484 3.60788 26.9036V9.09638C3.60788 8.45163 3.83763 7.89938 4.29713 7.43963C4.75688 6.97988 5.30913 6.75 5.95388 6.75H30.0461C30.6909 6.75 31.2431 6.97988 31.7029 7.43963C32.1624 7.89938 32.3921 8.45163 32.3921 9.09638H30.5078C30.5078 8.98088 30.4596 8.875 30.3634 8.77875C30.2674 8.68275 30.1616 8.63475 30.0461 8.63475H5.95388C5.83838 8.63475 5.73263 8.68275 5.63663 8.77875C5.54038 8.875 5.49225 8.98088 5.49225 9.09638V26.9036C5.49225 27.0191 5.54038 27.125 5.63663 27.2213C5.73263 27.3173 5.83838 27.3652 5.95388 27.3652H14.8174V29.25H5.95388ZM21.2464 33.1729C20.1904 33.1729 19.294 32.8036 18.5573 32.0651C17.8205 31.3266 17.4521 30.4299 17.4521 29.3749C17.4521 28.4839 17.7213 27.7012 18.2595 27.027C18.798 26.3525 19.4808 25.9093 20.3078 25.6973V21.4136H29.2403V19.0144C28.4135 18.8021 27.7309 18.3589 27.1924 17.6846C26.6539 17.0104 26.3846 16.2277 26.3846 15.3367C26.3846 14.2815 26.7543 13.3846 27.4935 12.6461C28.2328 11.9076 29.1304 11.5384 30.1864 11.5384C31.2421 11.5384 32.1385 11.9076 32.8755 12.6461C33.6123 13.3846 33.9806 14.2815 33.9806 15.3367C33.9806 16.2277 33.7114 17.0104 33.1729 17.6846C32.6346 18.3589 31.952 18.8021 31.125 19.0144V23.298H22.1921V25.6973C23.0191 25.9093 23.7019 26.3525 24.2404 27.027C24.7789 27.7012 25.0481 28.4839 25.0481 29.3749C25.0481 30.4299 24.6785 31.3266 23.9393 32.0651C23.2 32.8036 22.3024 33.1729 21.2464 33.1729Z" fill="#5DCF12"/>
</g>
</svg>
