<svg width="169" height="100" viewBox="0 0 169 100" fill="none" xmlns="http://www.w3.org/2000/svg">
<g clip-path="url(#clip0_0_151)">
<path d="M168.157 14.3767V69.2C168.14 69.2967 168.117 69.39 168.107 69.4867C167.703 73.3584 165.878 76.9428 162.984 79.5462C160.09 82.1496 156.333 83.5869 152.44 83.58C136.387 83.5956 120.331 83.5956 104.273 83.58H103.88C103.507 83.58 103.483 83.62 103.613 83.9533L103.673 84.1067C105.773 89.24 107.871 94.3744 109.967 99.51C110.057 99.6548 110.103 99.8227 110.1 99.9933C109.95 99.9615 109.809 99.8978 109.687 99.8067L98.1833 93.4033C92.4366 90.2033 86.6911 87.0022 80.9466 83.8C80.6597 83.6439 80.3365 83.5668 80.01 83.5767H15.85C14.4921 83.5818 13.1391 83.415 11.8233 83.08C8.4481 82.2212 5.4553 80.2622 3.31777 77.5125C1.18024 74.7629 0.0198523 71.3794 0.0199585 67.8967C0.0199585 50.41 0.0199585 32.9244 0.0199585 15.44C0.0205425 14.7946 0.062853 14.1499 0.146625 13.51C0.580042 10.3659 1.95676 7.42724 4.09503 5.08187C6.2333 2.7365 9.03257 1.09474 12.1233 0.373333C12.8633 0.21 13.61 0.12 14.3533 0H153.777L154.52 0.106667C157.695 0.521083 160.668 1.89656 163.039 4.04859C165.411 6.20063 167.067 9.02633 167.787 12.1467C167.957 12.8833 168.04 13.6333 168.157 14.3767ZM58.9466 49.75C58.81 49.6667 58.7966 49.54 58.7533 49.4333C58.48 48.7167 58.2066 48.0033 57.9466 47.2833C55.6239 40.7327 53.8238 34.0083 52.5633 27.1733C52.3133 25.8833 52.06 24.5933 51.4366 23.4167C50.97 22.5267 50.3766 21.75 49.4366 21.2967C48.6162 20.8776 47.6939 20.6996 46.7765 20.7834C45.8591 20.8672 44.9842 21.2093 44.2533 21.77C43.1266 22.5667 42.3733 23.6833 41.74 24.8867C38.0022 31.9978 34.2677 39.1089 30.5366 46.22L26.98 53C26.93 53.09 26.91 53.24 26.7766 53.2233C26.6433 53.2067 26.6866 53.0633 26.6466 52.9767C26.6331 52.9353 26.6231 52.893 26.6166 52.85C23.8433 41.5167 21.8 30.0367 20.05 18.5167C19.9462 17.4602 19.7442 16.4157 19.4466 15.3967C18.8333 13.6467 17.6533 12.5567 15.78 12.2467C14.8693 12.111 13.9426 12.1257 13.0366 12.29C11.6288 12.5073 10.3634 13.2712 9.51533 14.4157C8.66721 15.5603 8.30475 16.9932 8.50663 18.4033C8.79996 20.59 9.17329 22.77 9.52663 24.95C10.6466 31.75 11.8366 38.5367 13.1933 45.2833C14.47 51.6333 15.86 57.95 17.6566 64.1833C18.3026 66.5513 19.0918 68.8778 20.02 71.15C20.4923 72.3925 21.2229 73.5206 22.1633 74.46C22.6058 74.9163 23.1768 75.227 23.8002 75.3508C24.4236 75.4747 25.07 75.4058 25.6533 75.1533C26.0918 74.9814 26.5081 74.7576 26.8933 74.4867C28.1122 73.6069 29.1814 72.5365 30.06 71.3167C32.1968 68.43 34.0435 65.3394 35.5733 62.09C38.5 56.09 41.51 50.16 44.5266 44.2167L44.6166 44.0433C44.6866 43.9267 44.7566 43.9 44.8133 44.0433C44.8411 44.1152 44.8645 44.1886 44.8833 44.2633C45.47 46.2922 46.1133 48.3033 46.8133 50.2967C48.5643 55.4326 50.869 60.3627 53.6866 65C55.4932 67.953 57.6303 70.6907 60.0566 73.16C60.8951 74.0419 61.9201 74.7253 63.0566 75.16C65.39 76.0033 67.6333 75.1933 68.7966 73.0767C69.4705 71.8369 69.7791 70.4314 69.6866 69.0233C69.61 67.5267 69.53 66.0233 69.5333 64.53C69.5333 62.4433 69.6266 60.3533 69.7666 58.27C69.92 55.9567 70.1277 53.6478 70.39 51.3433C70.6933 48.6167 71.0566 45.8967 71.4766 43.1833C72.12 38.92 72.87 34.6767 73.8666 30.48C74.93 26 76.2 21.59 78.3633 17.48C78.7129 16.7814 78.8955 16.0112 78.8966 15.23C78.9633 13.0967 78.0233 11.5 76.29 10.3067C73.9066 8.66667 69.7666 8.78 67.9566 12.35C67.26 13.73 66.5733 15.11 65.9866 16.5367C64.4274 20.4519 63.1933 24.4889 62.2966 28.6067C60.8185 35.3343 59.7432 42.1442 59.0766 49C59.0811 49.256 59.037 49.5105 58.9466 49.75ZM159.733 38.44C159.733 37.3267 159.697 36.3467 159.617 35.3633C159.358 31.7603 158.3 28.26 156.52 25.1167C154.327 21.2767 151.187 18.6633 146.9 17.45C143.353 16.45 139.817 16.4 136.31 17.62C133.017 18.7667 130.403 20.86 128.227 23.53C125.697 26.6632 123.747 30.2222 122.467 34.04C120.829 38.8398 120.197 43.9254 120.61 48.98C120.809 52.0997 121.577 55.1567 122.877 58C123.963 60.3333 125.353 62.4467 127.34 64.0967C131.297 67.3767 135.893 68.4667 140.92 67.8333C144.617 67.37 147.717 65.6367 150.35 63.0467C152.61 60.8267 154.3 58.2033 155.733 55.4033C158.415 50.1542 159.787 44.3343 159.733 38.44ZM116.937 38.05C116.938 36.7121 116.848 35.3756 116.667 34.05C116.309 31.0978 115.404 28.238 114 25.6167C113.049 23.7472 111.748 22.078 110.167 20.7C106 17.25 101.19 16.1133 95.9066 17C91.9066 17.6667 88.7266 19.7967 86.0866 22.7833C83.2898 26.0067 81.1457 29.7425 79.7733 33.7833C77.9214 39.0599 77.2989 44.6897 77.9533 50.2433C78.2829 53.4646 79.2603 56.586 80.8266 59.42C82.2 61.88 83.9733 63.9767 86.4033 65.4467C89.9041 67.5831 94.0413 68.4297 98.1 67.84C101.597 67.38 104.59 65.84 107.157 63.43C109.6 61.1533 111.403 58.41 112.917 55.4633C115.653 50.1533 116.953 44.4933 116.937 38.05Z" fill="white"/>
<path d="M131.843 45.44C131.81 39.8967 133.677 35.0467 137.207 30.8134C138.08 29.6911 139.253 28.8393 140.59 28.3567C141.48 28.0225 142.455 27.9902 143.365 28.2649C144.276 28.5396 145.07 29.1059 145.627 29.8767C146.687 31.23 147.26 32.8134 147.733 34.4367C148.331 36.6143 148.519 38.8837 148.29 41.13C148.06 44.0192 147.308 46.8427 146.07 49.4634C144.966 51.9169 143.163 53.9902 140.887 55.4234C140.076 55.9531 139.145 56.2696 138.18 56.3434C136.66 56.42 135.513 55.72 134.59 54.5734C133.822 53.5451 133.234 52.3944 132.85 51.17C132.196 49.3299 131.856 47.3929 131.843 45.44Z" fill="white"/>
<path d="M105.543 39.4066C105.397 43.7399 104.433 47.8299 102.043 51.5033C100.902 53.3209 99.289 54.7953 97.3766 55.7699C96.5597 56.2073 95.6331 56.3973 94.71 56.3166C94.1698 56.2564 93.6468 56.0903 93.1709 55.8278C92.6951 55.5653 92.2756 55.2115 91.9366 54.7866C90.9933 53.6999 90.44 52.4033 89.9733 51.0666C89.1796 48.7175 88.869 46.2322 89.06 43.7599C89.3466 39.1266 91.06 35.0566 93.8633 31.4266C94.7933 30.2199 95.8633 29.1433 97.2933 28.5433C99.09 27.7933 100.787 27.9266 102.257 29.3099C102.984 30.0279 103.558 30.8849 103.947 31.8299C105.025 34.2087 105.57 36.7948 105.543 39.4066Z" fill="white"/>
</g>
<defs>
<clipPath id="clip0_0_151">
<rect width="168.137" height="100" fill="white" transform="translate(0.0199585)"/>
</clipPath>
</defs>
</svg>
