<svg width="101" height="100" viewBox="0 0 101 100" fill="none" xmlns="http://www.w3.org/2000/svg">
<g clip-path="url(#clip0_0_145)">
<path d="M51.22 0C52.6133 0.423333 54.06 0.25 55.48 0.403333C63.512 1.22149 71.2121 4.03454 77.88 8.58667C88.4633 15.83 95.4267 25.6633 98.5467 38.14C103.7 58.68 94.9466 80.6467 77.13 92.0367C70.426 96.351 62.788 99.0005 54.8524 99.7643C46.9168 100.528 38.9137 99.3839 31.5099 96.4273C24.1062 93.4707 17.5164 88.7873 12.2899 82.7674C7.06328 76.7474 3.3513 69.5655 1.46332 61.82C0.695921 58.7262 0.260131 55.5594 0.163324 52.3733C0.175984 51.9848 0.117233 51.5973 -0.0100098 51.23L-0.0100098 48.8967C0.135822 48.5011 0.204835 48.0814 0.193324 47.66C0.294548 44.4743 0.741616 41.3091 1.52666 38.22C4.65666 25.7033 11.61 15.84 22.2267 8.58C28.8924 4.03192 36.5887 1.22126 44.6167 0.403333C46.0367 0.25 47.4833 0.423333 48.8733 0H51.22ZM50.0533 96.6667C75.7367 96.6667 96.6233 75.8267 96.6533 50.1767C96.6833 24.3767 75.8433 3.46667 50.09 3.45667C24.3367 3.44667 3.45999 24.2833 3.44332 50C3.43588 56.1257 4.63598 62.1927 6.97502 67.8543C9.31406 73.5158 12.7461 78.6607 17.075 82.9949C21.4039 87.329 26.5447 90.7674 32.2034 93.1133C37.862 95.4592 43.9276 96.6667 50.0533 96.6667Z" fill="white"/>
<path d="M39.5266 73.0633L35.73 62.3333C32.1544 52.2222 28.58 42.1111 25.0066 31.9999C24.6566 30.9699 24.6566 30.9666 25.7366 30.9666C26.94 30.9666 28.1466 30.9433 29.35 30.9666C29.9333 30.9666 30.18 30.7866 30.1566 30.1866C30.1266 29.3399 30.1133 28.4899 30.1566 27.6466C30.2 26.8966 29.8866 26.7066 29.1833 26.7099C25.0133 26.7366 20.85 26.7099 16.67 26.7099C16.3366 26.7099 15.9633 26.8033 15.6266 26.6199C27.7 7.38328 57.85 0.666608 78.37 19.4333C76.9632 19.4511 75.5795 19.7933 74.3266 20.4333C71.5733 21.9399 70.2033 24.3133 69.9933 27.3799C69.93 28.2799 70.3266 29.0933 70.8233 29.8333C72.0333 31.6099 73.29 33.3566 74.4566 35.1666C76.9304 38.9572 78.1436 43.4323 77.9233 47.9533C77.7733 51.6499 76.81 55.1966 75.59 58.6766C73.9766 63.2744 72.3622 67.8733 70.7466 72.4733C70.6833 72.6533 70.6033 72.8299 70.4766 73.1399C69.4266 70.1799 68.42 67.3399 67.4166 64.4999C63.5766 53.6444 59.7322 42.7955 55.8833 31.9533C55.57 31.0733 55.75 30.9133 56.6066 30.9533C57.9733 31.0099 59.3466 30.9533 60.7133 30.9799C61.4066 31.0033 61.6433 30.7399 61.61 30.0766C61.565 29.3284 61.565 28.5782 61.61 27.8299C61.6766 26.9766 61.3666 26.7099 60.5 26.7133C54.0833 26.7466 47.6633 26.7333 41.2433 26.7333C39.6166 26.7333 37.9866 26.7533 36.3566 26.7333C35.73 26.7333 35.4733 26.9299 35.5033 27.5733C35.5433 28.4499 35.54 29.3333 35.5033 30.2133C35.4766 30.8199 35.7233 30.9999 36.3033 30.9866C37.7066 30.9566 39.1066 30.9866 40.5066 30.9666C41.1066 30.9666 41.4266 31.1066 41.6433 31.7266C43.6433 37.4355 45.6555 43.1355 47.68 48.8266C47.8231 49.1544 47.8408 49.5233 47.73 49.8633C45.05 57.4966 42.3744 65.1322 39.7033 72.7699C39.6531 72.8727 39.594 72.9708 39.5266 73.0633Z" fill="white"/>
<path d="M50.2033 55.9233L53.61 65.5433C56.3833 73.3833 59.1433 81.23 61.9433 89.0567C62.2233 89.8467 62.0833 90.0833 61.2767 90.3C53.6468 92.4139 45.5753 92.3318 37.99 90.0633C37.5533 89.9333 37.2433 89.83 37.48 89.2067C41.6733 78.1844 45.8511 67.1556 50.0133 56.12C50.04 56.09 50.0733 56.07 50.2033 55.9233Z" fill="white"/>
<path d="M70.0466 86.48C72.0955 80.7333 74.1455 74.9866 76.1966 69.24C79.4 60.24 82.64 51.26 85.7766 42.24C86.54 40.0433 86.7766 37.69 86.8533 35.36C86.9133 33.6733 87.0266 31.9766 86.6533 30.21C90.9433 37.18 93.46 48.7966 90.61 60.0166C87.61 71.79 80.7 80.59 70.2766 86.65L70.0466 86.48Z" fill="white"/>
<path d="M30.0533 86.6833C10.0267 75.78 3.76666 52 11.4467 34.2533C11.8567 34.8233 29.81 85.3733 30.0533 86.6833Z" fill="white"/>
</g>
<defs>
<clipPath id="clip0_0_145">
<rect width="100.03" height="100" fill="white" transform="translate(-0.0100098)"/>
</clipPath>
</defs>
</svg>
